<svg xmlns="http://www.w3.org/2000/svg" width="79" height="18.59" viewBox="0 0 79 18.59">
  <defs>
    <style>
      .cls-1 {
        fill: #aebace;
        fill-rule: evenodd;
      }
    </style>
  </defs>
  <path id="Фигура_22" data-name="Фигура 22" class="cls-1" d="M655.6,1978.18l9.374,9.3-9.374,9.3v-18.6h0Zm-67.431,11.38h-0.14a2.08,2.08,0,0,1,0-4.16,2.147,2.147,0,0,1,2.163,2.08,2.027,2.027,0,0,1-2.023,2.08h0Zm9.914,0h-0.138a2.08,2.08,0,1,1,0-4.16,2.146,2.146,0,0,1,2.162,2.08,2.027,2.027,0,0,1-2.024,2.08h0Zm9.915,0h-0.141a2.08,2.08,0,1,1,0-4.16H608a2.08,2.08,0,1,1,0,4.16h0Zm9.915,0h-0.139a2.08,2.08,0,1,1,0-4.16h0.139a2.08,2.08,0,1,1,0,4.16h0Zm9.914,0h-0.139a2.08,2.08,0,1,1,0-4.16,2.147,2.147,0,0,1,2.163,2.08,2.028,2.028,0,0,1-2.024,2.08h0Zm9.915,0H637.6a2.08,2.08,0,1,1,0-4.16,2.148,2.148,0,0,1,2.164,2.08,2.028,2.028,0,0,1-2.025,2.08h0Zm9.916,0h-0.142a2.08,2.08,0,1,1,0-4.16h0.142a2.08,2.08,0,1,1,0,4.16h0Z" transform="translate(-585.969 -1978.19)"/>
</svg>
