<svg xmlns="http://www.w3.org/2000/svg" width="251.94" height="281" viewBox="0 0 251.94 281">
  <defs>
    <style>
      .cls-1 {
        fill: #aebace;
        fill-rule: evenodd;
      }
    </style>
  </defs>
  <path id="Фигура_24" data-name="Фигура 24" class="cls-1" d="M1290.13,2247.77l-9.61,9.62,9.61,9.61v-19.23h0Zm79.5,7.5h-0.14a2.145,2.145,0,1,0,0,4.29h0.14A2.145,2.145,0,1,0,1369.63,2255.27Zm20.32,0h-0.14a2.145,2.145,0,1,0,0,4.29,2.2,2.2,0,0,0,2.21-2.14A2.086,2.086,0,0,0,1389.95,2255.27Zm-10.16,0h-0.14a2.145,2.145,0,1,0,0,4.29,2.2,2.2,0,0,0,2.21-2.14A2.08,2.08,0,0,0,1379.79,2255.27Zm-40.64,0h-0.14a2.145,2.145,0,0,0,0,4.29,2.206,2.206,0,0,0,2.22-2.14A2.088,2.088,0,0,0,1339.15,2255.27Zm10.16,0h-0.14a2.145,2.145,0,0,0,0,4.29,2.206,2.206,0,0,0,2.22-2.14A2.088,2.088,0,0,0,1349.31,2255.27Zm10.17,0h-0.15a2.145,2.145,0,0,0,0,4.29h0.15A2.145,2.145,0,0,0,1359.48,2255.27Zm40.63,0h-0.15a2.145,2.145,0,0,0,0,4.29h0.15A2.145,2.145,0,0,0,1400.11,2255.27Zm30.47,0h-0.14a2.145,2.145,0,0,0,0,4.29,2.206,2.206,0,0,0,2.22-2.14A2.088,2.088,0,0,0,1430.58,2255.27Zm10.16,0h-0.14a2.145,2.145,0,0,0,0,4.29h0.14A2.145,2.145,0,1,0,1440.74,2255.27Zm10.16,0h-0.14a2.145,2.145,0,1,0,0,4.29h0.14A2.145,2.145,0,1,0,1450.9,2255.27Zm-121.9,0h-0.15a2.145,2.145,0,0,0,0,4.29H1329A2.145,2.145,0,0,0,1329,2255.27Zm81.27,0h-0.15a2.145,2.145,0,0,0,0,4.29h0.15A2.145,2.145,0,0,0,1410.27,2255.27Zm10.15,0h-0.14a2.145,2.145,0,0,0,0,4.29,2.206,2.206,0,0,0,2.22-2.14A2.088,2.088,0,0,0,1420.42,2255.27Zm112.03-198.74a2.145,2.145,0,1,0-4.29,0v0.14a2.145,2.145,0,1,0,4.29,0v-0.14Zm-213.61,198.74h-0.15a2.145,2.145,0,0,0,0,4.29h0.15A2.145,2.145,0,1,0,1318.84,2255.27Zm211.46-190.65a2.086,2.086,0,0,0-2.14,2.08v0.14a2.145,2.145,0,1,0,4.29,0A2.207,2.207,0,0,0,1530.3,2064.62Zm-2.14,32.58v0.15a2.145,2.145,0,0,0,4.29,0v-0.15A2.145,2.145,0,0,0,1528.16,2097.2Zm2.14-12.24a2.084,2.084,0,0,0-2.14,2.07v0.15a2.145,2.145,0,0,0,4.29,0A2.207,2.207,0,0,0,1530.3,2084.96Zm-2.14-58.94v0.14a2.145,2.145,0,1,0,4.29,0v-0.14A2.145,2.145,0,1,0,1528.16,2026.02Zm-67.1,229.25h-0.14a2.145,2.145,0,1,0,0,4.29,2.2,2.2,0,0,0,2.21-2.14A2.08,2.08,0,0,0,1461.06,2255.27Zm69.24-180.48a2.086,2.086,0,0,0-2.14,2.08v0.14a2.145,2.145,0,0,0,4.29,0A2.207,2.207,0,0,0,1530.3,2074.79Zm-231.78,180.48h-0.14a2.145,2.145,0,1,0,0,4.29,2.2,2.2,0,0,0,2.21-2.14A2.08,2.08,0,0,0,1298.52,2255.27Zm10.16,0h-0.14a2.145,2.145,0,1,0,0,4.29,2.2,2.2,0,0,0,2.21-2.14A2.08,2.08,0,0,0,1308.68,2255.27Zm223.77-219.08a2.145,2.145,0,1,0-4.29,0v0.14a2.145,2.145,0,1,0,4.29,0v-0.14Zm-5.29-19.74,2.09-.51-2.06.64a2.164,2.164,0,0,0,2.09,1.65,2.2,2.2,0,0,0,.5-0.06,2.161,2.161,0,0,0,1.59-2.59s-0.04-.14-0.04-0.15A2.146,2.146,0,1,0,1527.16,2016.45Zm5.29,29.91a2.145,2.145,0,1,0-4.29,0v0.14a2.145,2.145,0,1,0,4.29,0v-0.14Zm-2.12,140.28a2.145,2.145,0,0,0-2.14,2.15v0.14a2.145,2.145,0,1,0,4.29,0v-0.14A2.147,2.147,0,0,0,1530.33,2186.64Zm0-10.17a2.151,2.151,0,0,0-2.14,2.15v0.15a2.084,2.084,0,0,0,2.14,2.07,2.207,2.207,0,0,0,2.15-2.22A2.153,2.153,0,0,0,1530.33,2176.47Zm0,20.34a2.145,2.145,0,0,0-2.14,2.15v0.14a2.145,2.145,0,1,0,4.29,0v-0.14A2.147,2.147,0,0,0,1530.33,2196.81Zm0-30.5a2.142,2.142,0,0,0-2.14,2.14v0.14a2.086,2.086,0,0,0,2.14,2.08,2.207,2.207,0,0,0,2.15-2.22A2.145,2.145,0,0,0,1530.33,2166.31Zm-0.52,60.98a2.136,2.136,0,0,0-.5-0.06,2.164,2.164,0,0,0-2.09,1.65l2.06,0.64-2.09-.5a2.145,2.145,0,1,0,4.17,1.01l0.04-.15A2.161,2.161,0,0,0,1529.81,2227.29Zm0.52-10.14a2.145,2.145,0,0,0-2.14,2.15v0.14a2.145,2.145,0,1,0,4.29,0v-0.14A2.147,2.147,0,0,0,1530.33,2217.15Zm0-10.17a2.145,2.145,0,0,0-2.14,2.15v0.14a2.145,2.145,0,1,0,4.29,0v-0.14A2.147,2.147,0,0,0,1530.33,2206.98Zm0-91.66a2.145,2.145,0,0,0-2.14,2.15v0.14a2.145,2.145,0,1,0,4.29,0v-0.14A2.147,2.147,0,0,0,1530.33,2115.32Zm-2.14-8.02v0.14a2.145,2.145,0,1,0,4.29,0v-0.14A2.145,2.145,0,0,0,1528.19,2107.3Zm2.14,18.19a2.145,2.145,0,0,0-2.14,2.15v0.14a2.145,2.145,0,1,0,4.29,0v-0.14A2.147,2.147,0,0,0,1530.33,2125.49Zm0,30.65a2.142,2.142,0,0,0-2.14,2.14v0.15a2.084,2.084,0,0,0,2.14,2.07,2.207,2.207,0,0,0,2.15-2.22A2.145,2.145,0,0,0,1530.33,2156.14Zm0-20.48a2.145,2.145,0,0,0-2.14,2.15v0.14a2.145,2.145,0,1,0,4.29,0v-0.14A2.147,2.147,0,0,0,1530.33,2135.66Zm0,10.31a2.145,2.145,0,0,0-2.14,2.15v0.14a2.145,2.145,0,1,0,4.29,0v-0.14A2.147,2.147,0,0,0,1530.33,2145.97Zm-12.42-145.78a2.152,2.152,0,0,0,3.03-.09,2.159,2.159,0,0,0-.09-3.04,2.21,2.21,0,0,0-3.06.02,2.092,2.092,0,0,0-.03,2.97C1517.77,2000.06,1517.89,2000.18,1517.91,2000.19Zm-26.38-9.9h0.15a2.145,2.145,0,0,0,0-4.29h-0.15A2.145,2.145,0,0,0,1491.53,1990.29Zm0.18,264.88h-0.14a2.145,2.145,0,1,0,0,4.29h0.14A2.145,2.145,0,1,0,1491.71,2255.17Zm9.45-264.08a1.491,1.491,0,0,1,.18.04,2.087,2.087,0,0,0,.43.04,2.147,2.147,0,0,0,.43-4.25,2.191,2.191,0,0,0-2.59,1.63A2.09,2.09,0,0,0,1501.16,1991.09Zm-19.78,264.18h-0.14a2.145,2.145,0,1,0,0,4.29,2.2,2.2,0,0,0,2.21-2.14A2.086,2.086,0,0,0,1481.38,2255.27Zm0.14-269.27h-0.14a2.145,2.145,0,1,0,0,4.29h0.14A2.145,2.145,0,0,0,1481.52,1986Zm20.29,268.29a3.27,3.27,0,0,0-.44.04c-0.01.01-.17,0.04-0.18,0.05a2.08,2.08,0,0,0-1.55,2.53,2.2,2.2,0,0,0,2.6,1.63A2.148,2.148,0,0,0,1501.81,2254.29Zm-30.59.98h-0.14a2.145,2.145,0,1,0,0,4.29,2.2,2.2,0,0,0,2.21-2.14A2.086,2.086,0,0,0,1471.22,2255.27Zm38.87-260.87,0.15,0.08a2.018,2.018,0,0,0,1,.26,2.165,2.165,0,0,0,1.9-1.14,2.136,2.136,0,0,0-.89-2.9,2.18,2.18,0,0,0-2.96.81A2.1,2.1,0,0,0,1510.09,1994.4Zm9.32,250.29a2.122,2.122,0,0,0-1.47.58c-0.01.01-.13,0.13-0.15,0.14a2.092,2.092,0,0,0,.03,2.97,2.21,2.21,0,0,0,3.06.02,2.158,2.158,0,0,0,.09-3.04A2.121,2.121,0,0,0,1519.41,2244.69Zm4.28-236.96a2.146,2.146,0,1,0,3.72-2.14,2.192,2.192,0,0,0-2.96-.85,2.087,2.087,0,0,0-.83,2.87Zm-12.41,242.99a2.169,2.169,0,0,0-1.01.26l-0.15.08a2.09,2.09,0,0,0-.79,2.89,2.187,2.187,0,0,0,2.96.82A2.153,2.153,0,0,0,1511.28,2250.72Zm15.37-13.78a2.134,2.134,0,0,0-2.93.79l-0.07.12a2.1,2.1,0,0,0,.83,2.88,2.2,2.2,0,0,0,2.96-.86A2.146,2.146,0,0,0,1526.65,2236.94Z" transform="translate(-1280.53 -1986)"/>
</svg>
