<svg xmlns="http://www.w3.org/2000/svg" width="265" height="280" viewBox="0 0 265 280">
  <defs>
    <style>
      .cls-1 {
        fill: #aebace;
        fill-rule: evenodd;
      }
    </style>
  </defs>
  <path id="Фигура_23" data-name="Фигура 23" class="cls-1" d="M404.948,2250.52l-0.149-.08a2.14,2.14,0,0,0-2.006,3.78,2.174,2.174,0,0,0,2.945-.82A2.1,2.1,0,0,0,404.948,2250.52Zm-20.084-49.62a2.137,2.137,0,0,0,2.131-2.14v-0.14a2.131,2.131,0,1,0-4.262,0v0.14A2.137,2.137,0,0,0,384.864,2200.9Zm0-10.13a2.137,2.137,0,0,0,2.131-2.14v-0.14a2.131,2.131,0,1,0-4.262,0v0.14A2.137,2.137,0,0,0,384.864,2190.77Zm0-10.2A2.078,2.078,0,0,0,387,2178.5v-0.15a2.131,2.131,0,0,0-4.262,0A2.2,2.2,0,0,0,384.864,2180.57Zm0-20.27a2.078,2.078,0,0,0,2.131-2.07v-0.14a2.131,2.131,0,1,0-4.262,0A2.2,2.2,0,0,0,384.864,2160.3Zm0,10.13a2.072,2.072,0,0,0,2.131-2.07v-0.14a2.131,2.131,0,1,0-4.262,0A2.2,2.2,0,0,0,384.864,2170.43Zm3.119,58.13-2.071.51,2.04-.64a2.131,2.131,0,1,0-4.145.99l0.033,0.15A2.132,2.132,0,1,0,387.983,2228.56Zm9.195,16.2a2.131,2.131,0,0,0-3.013.09,2.139,2.139,0,0,0,.092,3.02,2.187,2.187,0,0,0,3.041-.02,2.082,2.082,0,0,0,.026-2.95C397.31,2244.89,397.193,2244.77,397.178,2244.76Zm-2.921-247.3a2.151,2.151,0,0,0-.092,3.03,2.131,2.131,0,0,0,3.013.09c0.015-.01.132-0.13,0.146-0.14a2.094,2.094,0,0,0-.026-2.96A2.2,2.2,0,0,0,394.257,1997.46ZM387,2219.02v-0.14a2.131,2.131,0,1,0-4.262,0v0.14A2.131,2.131,0,1,0,387,2219.02Zm3.686-213.91a2.188,2.188,0,0,0-2.945.84,2.132,2.132,0,0,0,1.845,3.21,2.12,2.12,0,0,0,1.849-1.07l0.07-.12A2.081,2.081,0,0,0,390.681,2005.11Zm-5.817,145.13A2.137,2.137,0,0,0,387,2148.1v-0.14a2.131,2.131,0,1,0-4.262,0v0.14A2.137,2.137,0,0,0,384.864,2150.24Zm6.566,87.01a2.129,2.129,0,0,0-1.849-1.08,2.144,2.144,0,0,0-1.845,3.21,2.192,2.192,0,0,0,2.945.85,2.084,2.084,0,0,0,.819-2.86Zm-6.566-26.22a2.137,2.137,0,0,0,2.131-2.14v-0.14a2.131,2.131,0,1,0-4.262,0v0.14A2.137,2.137,0,0,0,384.864,2211.03Zm0-162.17a2.137,2.137,0,0,0,2.131-2.14v-0.14a2.131,2.131,0,1,0-4.262,0v0.14A2.137,2.137,0,0,0,384.864,2048.86Zm0-10.13a2.137,2.137,0,0,0,2.131-2.14v-0.14a2.131,2.131,0,1,0-4.262,0v0.14A2.137,2.137,0,0,0,384.864,2038.73Zm0,30.39a2.137,2.137,0,0,0,2.131-2.14v-0.14a2.078,2.078,0,0,0-2.131-2.07,2.2,2.2,0,0,0-2.131,2.21A2.137,2.137,0,0,0,384.864,2069.12Zm0-10.13a2.137,2.137,0,0,0,2.131-2.14v-0.14a2.131,2.131,0,1,0-4.262,0v0.14A2.137,2.137,0,0,0,384.864,2058.99Zm0-30.39a2.137,2.137,0,0,0,2.131-2.14v-0.15a2.131,2.131,0,0,0-4.262,0v0.15A2.137,2.137,0,0,0,384.864,2028.6Zm0.519-10.11a2.124,2.124,0,0,0,2.569-1.58l-2.04-.64,2.071,0.5a2.131,2.131,0,1,0-4.143-1l-0.033.14A2.138,2.138,0,0,0,385.383,2018.49Zm-0.519,111.35A2.137,2.137,0,0,0,387,2127.7v-0.14a2.131,2.131,0,1,0-4.262,0v0.14A2.137,2.137,0,0,0,384.864,2129.84Zm0-50.59a2.137,2.137,0,0,0,2.131-2.14v-0.14a2.078,2.078,0,0,0-2.131-2.07,2.2,2.2,0,0,0-2.131,2.21A2.137,2.137,0,0,0,384.864,2079.25Zm0,60.72a2.137,2.137,0,0,0,2.131-2.14v-0.14a2.131,2.131,0,1,0-4.262,0v0.14A2.137,2.137,0,0,0,384.864,2139.97Zm0-30.39a2.137,2.137,0,0,0,2.131-2.14v-0.15a2.131,2.131,0,0,0-4.262,0v0.15A2.137,2.137,0,0,0,384.864,2109.58Zm0,10.13a2.137,2.137,0,0,0,2.131-2.14v-0.14a2.131,2.131,0,1,0-4.262,0v0.14A2.137,2.137,0,0,0,384.864,2119.71Zm0-30.33a2.129,2.129,0,0,0,2.131-2.13v-0.15a2.078,2.078,0,0,0-2.131-2.07,2.2,2.2,0,0,0-2.131,2.22A2.129,2.129,0,0,0,384.864,2089.38Zm0,10.14a2.137,2.137,0,0,0,2.131-2.14v-0.15a2.131,2.131,0,0,0-4.262,0v0.15A2.137,2.137,0,0,0,384.864,2099.52Zm38.516-113.08h-0.142a2.14,2.14,0,0,0,0,4.28h0.142A2.14,2.14,0,0,0,423.38,1986.44Zm141.477,268.28h-0.142a2.078,2.078,0,0,0-2.061,2.14,2.2,2.2,0,0,0,2.2,2.14A2.14,2.14,0,0,0,564.857,2254.72Zm10.093,0h-0.142a2.077,2.077,0,0,0-2.059,2.14,2.2,2.2,0,0,0,2.2,2.14A2.14,2.14,0,0,0,574.95,2254.72Zm20.187,0h-0.143a2.14,2.14,0,0,0,0,4.28h0.144A2.14,2.14,0,0,0,595.137,2254.72Zm-10.094,0H584.9a2.14,2.14,0,0,0,0,4.28h0.143A2.14,2.14,0,0,0,585.043,2254.72Zm-40.372,0h-0.143a2.14,2.14,0,0,0,0,4.28h0.143A2.14,2.14,0,0,0,544.671,2254.72Zm10.093,0h-0.143a2.14,2.14,0,0,0,0,4.28h0.143A2.14,2.14,0,0,0,554.764,2254.72Zm-20.185,0h-0.143a2.078,2.078,0,0,0-2.06,2.14,2.2,2.2,0,0,0,2.2,2.14A2.14,2.14,0,0,0,534.579,2254.72Zm100.931,0h-0.143a2.14,2.14,0,0,0,0,4.28h0.143A2.14,2.14,0,0,0,635.51,2254.72Zm10.092,0h-0.141a2.077,2.077,0,0,0-2.06,2.14,2.2,2.2,0,0,0,2.2,2.14A2.14,2.14,0,0,0,645.6,2254.72Zm-20.187,0h-0.14a2.077,2.077,0,0,0-2.06,2.14,2.2,2.2,0,0,0,2.2,2.14A2.14,2.14,0,0,0,625.415,2254.72Zm-20.186,0h-0.141a2.077,2.077,0,0,0-2.06,2.14,2.2,2.2,0,0,0,2.2,2.14A2.14,2.14,0,0,0,605.229,2254.72Zm10.094,0H615.18a2.077,2.077,0,0,0-2.059,2.14,2.2,2.2,0,0,0,2.2,2.14A2.14,2.14,0,0,0,615.323,2254.72Zm-90.839,0h-0.142a2.078,2.078,0,0,0-2.061,2.14,2.2,2.2,0,0,0,2.2,2.14A2.14,2.14,0,0,0,524.484,2254.72Zm-101.1-.1h-0.142a2.14,2.14,0,0,0,0,4.28h0.142A2.14,2.14,0,0,0,423.38,2254.62Zm30.454,0.1h-0.143a2.079,2.079,0,0,0-2.06,2.14,2.2,2.2,0,0,0,2.2,2.14A2.14,2.14,0,0,0,453.834,2254.72Zm-10.1,0H443.6a2.078,2.078,0,0,0-2.06,2.14,2.2,2.2,0,0,0,2.2,2.14A2.14,2.14,0,0,0,443.739,2254.72Zm-10.095,0H433.5a2.078,2.078,0,0,0-2.06,2.14,2.2,2.2,0,0,0,2.2,2.14A2.14,2.14,0,0,0,433.644,2254.72Zm-19.822-.89c-0.013,0-.168-0.04-0.181-0.04a2.139,2.139,0,0,0-.861,4.19,2.189,2.189,0,0,0,2.584-1.63A2.081,2.081,0,0,0,413.822,2253.83Zm-11.029-262.71a2.144,2.144,0,0,0,1,4.03,2.031,2.031,0,0,0,1-.26l0.149-.08a2.1,2.1,0,0,0,.79-2.88A2.179,2.179,0,0,0,402.793,1991.12Zm9.987-3.76a2.139,2.139,0,0,0,.861,4.19c0.013,0,.168-0.04.181-0.04a2.086,2.086,0,0,0,1.542-2.53A2.182,2.182,0,0,0,412.78,1987.36Zm51.147,267.36h-0.144a2.14,2.14,0,0,0,0,4.28h0.144A2.14,2.14,0,0,0,463.927,2254.72Zm50.466,0h-0.144a2.14,2.14,0,0,0,0,4.28h0.145A2.14,2.14,0,0,0,514.393,2254.72Zm-20.187,0h-0.143a2.078,2.078,0,0,0-2.06,2.14,2.2,2.2,0,0,0,2.2,2.14A2.14,2.14,0,0,0,494.206,2254.72Zm10.092,0h-0.143a2.14,2.14,0,0,0,0,4.28H504.3A2.14,2.14,0,0,0,504.3,2254.72Zm-30.28,0h-0.141a2.14,2.14,0,0,0,0,4.28h0.141A2.14,2.14,0,0,0,474.018,2254.72Zm10.093,0H483.97a2.079,2.079,0,0,0-2.062,2.14,2.2,2.2,0,0,0,2.2,2.14A2.14,2.14,0,0,0,484.111,2254.72ZM430.04,1979l9.543,9.58-9.543,9.58V1979h0Z" transform="translate(-382.719 -1979)"/>
</svg>
