<svg xmlns="http://www.w3.org/2000/svg" width="481.031" height="651.87" viewBox="0 0 481.031 651.87">
  <defs>
    <style>
      .cls-1 {
        fill: #d1d2d3;
        fill-rule: evenodd;
      }
    </style>
  </defs>
  <path id="дуга" class="cls-1" d="M602.107,1103.13c-0.5,0-.985.01-1.482,0.01-0.312,0-.622-0.01-0.934-0.01q-6.672,0-13.331.28a273.269,273.269,0,0,0-48.633,5.68,326.729,326.729,0,0,0-79.108,26.06,8.394,8.394,0,1,0,2.162,6.75c7.374-4.13,14.45-7.82,21.384-11.09a322.341,322.341,0,0,1,115.095-22.25c177.6,1.46,322.858,141.95,321.079,320.8,0,163.07-122.835,297.72-281.853,318.13a321.792,321.792,0,0,1-175.767-29.5,8.415,8.415,0,1,0-8.29,7.05,8.377,8.377,0,0,0,5.728-2.27,324.82,324.82,0,0,0,38.039,15.4c27.774,10.09,56.527,15.24,89.123,16.51q7.178,0.315,14.372.32c0.3,0,.606-0.01.91-0.01,0.5,0,1,.01,1.506.01,178.87,0,322.918-144.97,322.918-324.98S780.977,1103.13,602.107,1103.13Zm-141.283,38.34c0.017-.21.033-0.43,0.033-0.65,0-.24-0.051-0.47-0.072-0.71q5.3-2.55,10.7-4.88C467.979,1137.21,464.432,1139.28,460.824,1141.47Z" transform="translate(-444 -1103.13)"/>
</svg>
