<svg xmlns="http://www.w3.org/2000/svg" width="41.563" height="39.81" viewBox="0 0 41.563 39.81">
  <defs>
    <style>
      .cls-1 {
        fill: #006cc6;
        fill-rule: evenodd;
      }
    </style>
  </defs>
  <path id="Фигура_34" data-name="Фигура 34" class="cls-1" d="M540.568,6306.27v33.87c-0.879.95-1.759,1.91-2.638,2.86H501.646a4.2,4.2,0,0,0-.641-0.53,3.847,3.847,0,0,1-2-3.62q0.015-15.78,0-31.55a3.977,3.977,0,0,1,2.18-3.65c0.237-.14.457-0.31,0.684-0.46H537.71A6.065,6.065,0,0,1,540.568,6306.27Zm-15.782,22.01c0.066,0.39.1,0.53,0.112,0.67,0.278,2.45,2.6,3.82,4.69,2.57a7.966,7.966,0,0,0,2.362-2.5,12.186,12.186,0,0,0,1.577-7.78,11.919,11.919,0,0,0-3.625-8.08,14.072,14.072,0,0,0-13.527-3.58,13.2,13.2,0,0,0-8.776,19.38c2.154,3.95,5.732,5.9,10.1,6.58a11.667,11.667,0,0,0,6.118-.51,1.6,1.6,0,0,0,1.112-2.18c-0.46-.96-1.3-0.77-2.087-0.5a11.175,11.175,0,0,1-12.076-3.91,10.524,10.524,0,0,1,11.767-15.97c8.134,2.03,9.792,9.7,6.584,15.48a4.258,4.258,0,0,1-1.189.94,4.474,4.474,0,0,1-.526-1.39c-0.045-3.41,0-6.82-.057-10.22a1.613,1.613,0,0,0-.722-1.27,3.137,3.137,0,0,0-1.571.41,1.185,1.185,0,0,0-.356.43c-3.351-2.77-7.426-2.88-10.315-.35a7.811,7.811,0,0,0-1.813,10.04,8.39,8.39,0,0,0,4.662,3.6C520.02,6330.99,522.436,6330.1,524.786,6328.28Zm-0.27-5.72a5.054,5.054,0,0,1-5.212,5.37c-3.067-.01-4.917-2.32-4.955-5.21a5.083,5.083,0,0,1,5.063-5.39A4.949,4.949,0,0,1,524.516,6322.56Z" transform="translate(-499 -6303.19)"/>
</svg>
