<svg xmlns="http://www.w3.org/2000/svg" width="41.531" height="39.81" viewBox="0 0 41.531 39.81">
  <defs>
    <style>
      .cls-1 {
        fill: #006cc6;
        fill-rule: evenodd;
      }
    </style>
  </defs>
  <path id="Фигура_32" data-name="Фигура 32" class="cls-1" d="M447.869,6303.19h35.774c2.127,1.14,2.925,2.86,2.9,5.32-0.109,10.03-.054,20.07-0.037,30.1a4.123,4.123,0,0,1-2.209,3.96,2,2,0,0,0-.433.43h-9.437v-14.95c1.735,0,3.269-.02,4.8.01a0.753,0.753,0,0,0,.94-0.85c0.07-1.53.232-3.05,0.366-4.69h-6.081c0-1.43-.012-2.75,0-4.06,0.016-1.26.418-1.89,1.665-2.03a37.374,37.374,0,0,1,4.247-.04c0.283-1.65.588-3.43,0.891-5.2a1.836,1.836,0,0,0-.464-0.23,67.176,67.176,0,0,0-7.614-.45,5.947,5.947,0,0,0-5.555,5.27,37.759,37.759,0,0,0-.222,4.14c-0.03.86-.006,1.73-0.006,2.69h-3.722v5.46H467.4V6343H447.65c-1.422-1-2.651-2.07-2.646-4.06q0.04-15.825.007-31.66a3.58,3.58,0,0,1,1.33-2.98C446.833,6303.91,447.359,6303.56,447.869,6303.19Z" transform="translate(-445 -6303.19)"/>
</svg>
