<svg xmlns="http://www.w3.org/2000/svg" width="41.531" height="39.81" viewBox="0 0 41.531 39.81">
  <defs>
    <style>
      .cls-1 {
        fill: #006cc6;
        fill-rule: evenodd;
      }
    </style>
  </defs>
  <path id="Фигура_33" data-name="Фигура 33" class="cls-1" d="M592.873,6343h-36.22a1.53,1.53,0,0,0-.289-0.27,4.251,4.251,0,0,1-2.36-4.1q0.046-15.615,0-31.22a3.971,3.971,0,0,1,1.223-3.05,14.161,14.161,0,0,1,1.643-1.17h35.78c2.142,1.08,2.915,2.79,2.893,5.21-0.093,10.1-.049,20.21-0.026,30.32a4.3,4.3,0,0,1-1.248,3.16A14.722,14.722,0,0,1,592.873,6343Zm-31.951-10.34a2.925,2.925,0,0,0,.35.23A18.52,18.52,0,0,0,572,6334.94a16.421,16.421,0,0,0,8.224-3.16,17.356,17.356,0,0,0,7.2-14.25,1.974,1.974,0,0,1,.826-1.65c0.75-.64,1.417-1.38,2.119-2.08-0.053-.07-0.106-0.13-0.159-0.19-0.811.2-1.622,0.41-2.663,0.67,0.845-1.16,1.5-2.07,2.156-2.97-1.027.14-1.8,0.58-2.626,0.73a2.588,2.588,0,0,1-1.894-.28,6.181,6.181,0,0,0-9.633,2.67,22.246,22.246,0,0,0-.608,3.63,18,18,0,0,1-12.58-6.46,7.1,7.1,0,0,0,1.467,8.3c-0.746-.21-1.492-0.43-2.315-0.67,0.2,3.04,1.894,4.89,4.454,6.23h-2.23c0.953,2.55,2.845,3.85,5.725,4.29-0.629.44-1.006,0.74-1.418,0.98A15.516,15.516,0,0,1,560.922,6332.66Z" transform="translate(-554 -6303.19)"/>
</svg>
