<svg xmlns="http://www.w3.org/2000/svg" width="41.563" height="39.81" viewBox="0 0 41.563 39.81">
  <defs>
    <style>
      .cls-1 {
        fill: #006cc6;
        fill-rule: evenodd;
      }
    </style>
  </defs>
  <path id="Фигура_31" data-name="Фигура 31" class="cls-1" d="M428.926,6343H392.639a6.864,6.864,0,0,1-2.639-2.86v-34.09a7.038,7.038,0,0,1,2.859-2.86h35.847c0.259,0.17.513,0.35,0.777,0.51a4.038,4.038,0,0,1,2.079,3.61q0.009,15.81,0,31.62a3.671,3.671,0,0,1-1.666,3.25C429.553,6342.42,429.25,6342.73,428.926,6343Zm-27.448-6.82h0.954c3.736,0,7.475.08,11.208-.03a10.357,10.357,0,0,0,6.4-2.17,7.422,7.422,0,0,0,2.684-7.23,5.8,5.8,0,0,0-4.406-4.89,5.587,5.587,0,0,1-.784-0.43c0.328-.21.512-0.32,0.69-0.44a6.194,6.194,0,0,0,1.01-9.57,8.12,8.12,0,0,0-5.675-1.83c-3.7-.07-7.4-0.03-11.1-0.04-0.316,0-.633.04-0.986,0.06v26.57Zm6.711-4.86v-6.9c1.945,0.17,3.861.22,5.734,0.53a2.458,2.458,0,0,1,2.02,2.54c0.085,1.43-.294,2.7-1.726,3.22a14.473,14.473,0,0,1-3.294.59C410.06,6331.39,409.179,6331.32,408.189,6331.32Zm-0.023-11.13v-5.69a31.517,31.517,0,0,1,4.129.04c1.335,0.17,1.96,1.19,1.962,2.61a2.5,2.5,0,0,1-1.921,2.69C410.993,6320.07,409.612,6320.08,408.166,6320.19Z" transform="translate(-390 -6303.19)"/>
</svg>
